<svg width="120" height="40" viewBox="0 0 120 40" fill="none" xmlns="http://www.w3.org/2000/svg">
<path d="M75.4782 31.9563C74.8515 31.9563 74.3568 31.8186 73.9941 31.5432C73.6315 31.2678 73.4547 30.8515 73.4638 30.2941L74.4654 30.0679C74.4693 30.3368 74.5201 30.5499 74.6179 30.7072C74.7156 30.8646 74.8518 30.976 75.0264 31.0416C75.2077 31.1072 75.4083 31.14 75.6283 31.14C75.955 31.14 76.2164 31.0777 76.4127 30.9531C76.6156 30.8285 76.7351 30.6679 76.7713 30.4712C76.8075 30.2745 76.7506 30.1302 76.6009 30.0384C76.4511 29.9466 76.2183 29.8712 75.9025 29.8122L75.5733 29.7532C75.2508 29.6942 74.9632 29.609 74.7103 29.4975C74.4575 29.386 74.2692 29.232 74.1453 29.0353C74.0215 28.8385 73.9879 28.5861 74.0446 28.2779C74.129 27.819 74.3675 27.4649 74.7599 27.2158C75.1536 26.96 75.6371 26.8322 76.2105 26.8322C76.7638 26.8322 77.1942 26.9568 77.5017 27.2059C77.8171 27.4485 77.9896 27.7796 78.0191 28.1993L77.0102 28.4648C77.0045 28.1698 76.9158 27.9632 76.7442 27.8452C76.5738 27.7206 76.3452 27.6583 76.0586 27.6583C75.7786 27.6583 75.5489 27.7108 75.3696 27.8157C75.1915 27.9141 75.0856 28.055 75.0518 28.2386C75.0157 28.4353 75.0658 28.5796 75.2023 28.6714C75.3454 28.7631 75.5461 28.832 75.8043 28.8779L76.1434 28.9369C76.4859 28.9959 76.7942 29.0779 77.0682 29.1828C77.3423 29.2877 77.5445 29.4385 77.675 29.6352C77.8122 29.8319 77.8506 30.0942 77.7903 30.422C77.7011 30.9072 77.4484 31.2842 77.0323 31.553C76.6162 31.8219 76.0982 31.9563 75.4782 31.9563Z" fill="white"/>
<path d="M79.98 31.8186C79.68 31.8186 79.4563 31.7301 79.3088 31.553C79.168 31.376 79.1248 31.14 79.179 30.8449L79.7343 27.8255H78.3743L78.5316 26.9699H79.8916L80.1864 25.3668H81.2164L80.9216 26.9699H82.3916L82.2343 27.8255H80.7643L80.2416 30.6679C80.2054 30.8646 80.2807 30.9629 80.4673 30.9629H81.4973L81.34 31.8186H79.98Z" fill="white"/>
<path d="M84.0838 31.9071C83.7105 31.9071 83.3922 31.8251 83.129 31.6612C82.8658 31.4973 82.6786 31.2645 82.5674 30.9629C82.4562 30.6613 82.4392 30.3007 82.5164 29.8811L83.0517 26.9699H84.0817L83.559 29.8122C83.4819 30.2319 83.5312 30.5433 83.7072 30.7466C83.8844 30.9433 84.1629 31.0416 84.5429 31.0416C84.9629 31.0416 85.3249 30.9039 85.6289 30.6285C85.9408 30.3466 86.1449 29.9434 86.2414 29.4188L86.6917 26.9699H87.7217L86.8301 31.8186H85.8201L85.9539 31.0908H85.7939C85.6644 31.2875 85.4634 31.4744 85.1908 31.6514C84.9195 31.8219 84.5505 31.9071 84.0838 31.9071Z" fill="white"/>
<path d="M89.8673 31.9563C89.4607 31.9563 89.1021 31.8579 88.7916 31.6612C88.4811 31.4645 88.2529 31.1826 88.1071 30.8154C87.9692 30.4417 87.9484 29.9925 88.0449 29.468L88.072 29.3205C88.1673 28.8025 88.3526 28.3566 88.628 27.9829C88.9034 27.6092 89.2325 27.3239 89.6154 27.1272C89.9982 26.9305 90.3963 26.8322 90.8096 26.8322C91.1296 26.8322 91.389 26.8715 91.5879 26.9502C91.7934 27.0289 91.9548 27.1305 92.0718 27.2551C92.1901 27.3731 92.2739 27.4977 92.3231 27.6288H92.4831L92.9787 24.934H94.0087L92.7426 31.8186H91.7326L91.8592 31.1301H91.6992C91.534 31.3399 91.3057 31.5301 91.0143 31.7006C90.7297 31.871 90.3473 31.9563 89.8673 31.9563ZM90.3201 31.0711C90.7668 31.0711 91.1594 30.9301 91.4979 30.6482C91.8431 30.3663 92.0639 29.963 92.1603 29.4385L92.1766 29.35C92.2719 28.832 92.2021 28.432 91.9673 28.1501C91.7324 27.8682 91.3884 27.7272 90.935 27.7272C90.495 27.7272 90.1024 27.8682 89.7573 28.1501C89.4187 28.432 89.2019 28.832 89.1066 29.35L89.0903 29.4385C88.9939 29.963 89.0631 30.3663 89.2979 30.6482C89.5394 30.9301 89.8801 31.0711 90.3201 31.0711Z" fill="white"/>
<path d="M93.7589 31.8186L94.6505 26.9699H95.6805L94.7889 31.8186H93.7589ZM95.2917 26.3109C95.0917 26.3109 94.9332 26.2486 94.8161 26.1241C94.7069 25.9929 94.6709 25.8257 94.7083 25.6225C94.7457 25.4192 94.8425 25.2553 94.9988 25.1307C95.1629 24.9996 95.3449 24.934 95.5449 24.934C95.7516 24.934 95.9095 24.9996 96.0188 25.1307C96.1292 25.2553 96.1657 25.4192 96.1283 25.6225C96.0909 25.8257 95.9935 25.9929 95.8361 26.1241C95.6798 26.2486 95.4984 26.3109 95.2917 26.3109Z" fill="white"/>
<path d="M98.1022 31.9563C97.6088 31.9563 97.1869 31.8579 96.8364 31.6612C96.4938 31.458 96.2469 31.1695 96.0956 30.7957C95.9443 30.422 95.9157 29.9794 96.0097 29.468L96.0369 29.3205C96.1309 28.809 96.3217 28.3697 96.6092 28.0026C96.898 27.6288 97.251 27.3403 97.6684 27.1371C98.0924 26.9338 98.5511 26.8322 99.0445 26.8322C99.5378 26.8322 99.9591 26.9338 100.308 27.1371C100.658 27.3403 100.908 27.6288 101.059 28.0026C101.212 28.3697 101.241 28.809 101.147 29.3205L101.12 29.468C101.026 29.9794 100.834 30.422 100.546 30.7957C100.257 31.1695 99.9005 31.458 99.4764 31.6612C99.0536 31.8579 98.5955 31.9563 98.1022 31.9563ZM98.2686 31.0514C98.7219 31.0514 99.1145 30.9105 99.4463 30.6285C99.7861 30.34 100.002 29.9434 100.095 29.4385L100.111 29.35C100.204 28.8451 100.137 28.4517 99.9085 28.1698C99.6815 27.8813 99.3381 27.737 98.8781 27.737C98.4314 27.737 98.0382 27.8813 97.6985 28.1698C97.3666 28.4517 97.1543 28.8451 97.0615 29.35L97.0452 29.4385C96.9523 29.9434 97.0194 30.34 97.2463 30.6285C97.4811 30.9105 97.8219 31.0514 98.2686 31.0514Z" fill="white"/>
<path d="M12.102 21.7691L13.52 14.0584H11L11.3762 12.0127H13.8962L14.229 10.2031C14.352 9.53427 14.6496 9.00318 15.122 8.60978C15.6101 8.20326 16.1808 8 16.8341 8L21.9421 8L21 10.0457H17.3379C16.9646 10.0457 16.7417 10.2424 16.6694 10.6358L16.4162 12.0127H23L19.64 14.0584H16.04L14.622 21.7691H12.102Z" fill="white"/>
<path d="M22.5103 22.0445C21.5236 22.0445 20.6731 21.8478 19.9588 21.4544C19.2445 21.061 18.7294 20.4906 18.4135 19.7431C18.0976 18.9956 18.0362 18.0974 18.2291 17.0483L18.287 16.7336C18.4799 15.6845 18.8717 14.7862 19.4625 14.0387C20.0533 13.2913 20.7782 12.7208 21.6372 12.3274C22.4962 11.934 23.4191 11.7373 24.4057 11.7373C25.3924 11.7373 26.2429 11.934 26.9572 12.3274C27.6715 12.7208 28.1866 13.2913 28.5025 14.0387C28.8184 14.7862 28.8799 15.6845 28.687 16.7336L28.6291 17.0483C28.4362 18.0974 28.0443 18.9956 27.4535 19.7431C26.8627 20.4906 26.1378 21.061 25.2788 21.4544C24.4198 21.8478 23.497 22.0445 22.5103 22.0445ZM22.9154 19.8414C23.6888 19.8414 24.3734 19.5988 24.9693 19.1136C25.5676 18.6153 25.9511 17.9072 26.1199 16.9893L26.1561 16.7926C26.3249 15.8746 26.2006 15.1731 25.7832 14.6879C25.3815 14.1895 24.7873 13.9404 24.0006 13.9404C23.2273 13.9404 22.5415 14.1895 21.9432 14.6879C21.3473 15.1731 20.9649 15.8746 20.7961 16.7926L20.7599 16.9893C20.5911 17.9072 20.7142 18.6153 21.1293 19.1136C21.5467 19.5988 22.1421 19.8414 22.9154 19.8414Z" fill="white"/>
<path d="M32.8381 21.9265C32.0648 21.9265 31.4161 21.756 30.8921 21.4151C30.3839 21.061 30.0265 20.5758 29.8198 19.9595C29.6132 19.3431 29.5834 18.635 29.7305 17.8351L30.8012 12.0127H33.3212L32.2867 17.6384C32.1516 18.3727 32.2303 18.9235 32.5228 19.2907C32.8286 19.6579 33.3215 19.8414 34.0015 19.8414C34.7749 19.8414 35.4207 19.5923 35.939 19.094C36.4597 18.5826 36.8033 17.8744 36.9696 16.9696L37.8812 12.0127H40.4012L38.607 21.7691H36.127L36.3622 20.4906H36.0022C35.7819 20.8184 35.4228 21.1397 34.9249 21.4544C34.427 21.7691 33.7314 21.9265 32.8381 21.9265Z" fill="white"/>
<path d="M40.4113 21.7691L42.2054 12.0127H44.6854L44.4503 13.2913H44.8103C45.033 12.9503 45.3921 12.629 45.8875 12.3274C46.3854 12.0127 47.081 11.8554 47.9743 11.8554C48.7477 11.8554 49.3885 12.0324 49.8967 12.3864C50.4207 12.7274 50.786 13.206 50.9926 13.8224C51.2017 14.4256 51.2315 15.1337 51.082 15.9467L50.0113 21.7691H47.4913L48.5258 16.1435C48.6608 15.4091 48.5755 14.8583 48.2696 14.4912C47.9772 14.124 47.4909 13.9404 46.8109 13.9404C46.0376 13.9404 45.3906 14.1961 44.8699 14.7075C44.3515 15.2058 44.0092 15.9074 43.8428 16.8122L42.9313 21.7691H40.4113Z" fill="white"/>
<path d="M55.6848 22.0445C54.8982 22.0445 54.1931 21.8544 53.5697 21.4741C52.9621 21.0807 52.5203 20.5102 52.2444 19.7628C51.9686 19.0153 51.9283 18.1105 52.1236 17.0483L52.1815 16.7336C52.3768 15.6714 52.7499 14.7665 53.3007 14.0191C53.8515 13.2716 54.5018 12.7077 55.2518 12.3274C56.0041 11.934 56.7803 11.7373 57.5803 11.7373C58.1803 11.7373 58.667 11.8095 59.0405 11.9537C59.4297 12.0848 59.7317 12.2553 59.9464 12.4651C60.1612 12.6749 60.3135 12.8979 60.4035 13.1339H60.7635L61.7076 8H64.2276L61.6955 21.7691H59.2155L59.4325 20.5889H59.0725C58.7783 20.9561 58.3635 21.2905 57.828 21.5921C57.3059 21.8937 56.5915 22.0445 55.6848 22.0445ZM56.8427 19.8808C57.6161 19.8808 58.3073 19.6382 58.9166 19.153C59.5282 18.6547 59.9208 17.9334 60.0945 16.9893L60.1306 16.7926C60.3043 15.8484 60.1757 15.1337 59.7449 14.6485C59.3299 14.1502 58.729 13.9011 57.9424 13.9011C57.169 13.9011 56.4766 14.1502 55.8649 14.6485C55.2557 15.1337 54.8643 15.8484 54.6906 16.7926L54.6545 16.9893C54.4808 17.9334 54.6082 18.6547 55.0366 19.153C55.4673 19.6382 56.0694 19.8808 56.8427 19.8808Z" fill="white"/>
<path d="M67.5587 22.0445C66.2654 22.0445 65.2561 21.7691 64.5307 21.2184C63.8053 20.6676 63.45 19.8808 63.4647 18.8579L65.8933 18.2678C65.9022 18.7268 65.9892 19.0874 66.1543 19.3497C66.3327 19.612 66.5711 19.8021 66.8694 19.9201C67.1834 20.025 67.5338 20.0775 67.9205 20.0775C68.5071 20.0775 68.9585 19.9791 69.2747 19.7824C69.5933 19.5726 69.7803 19.3169 69.8358 19.0153C69.8913 18.7137 69.8001 18.4842 69.5624 18.3268C69.3271 18.1564 68.9257 18.0187 68.3584 17.9138L67.8164 17.8154C67.1472 17.6843 66.5465 17.5072 66.0141 17.2843C65.4842 17.0483 65.0833 16.727 64.8114 16.3205C64.5394 15.914 64.4626 15.3894 64.5807 14.7469C64.7592 13.7765 65.2554 13.0356 66.0695 12.5241C66.8859 11.9996 67.8808 11.7373 69.0542 11.7373C70.1608 11.7373 71.0362 11.9799 71.6803 12.4651C72.3244 12.9503 72.6875 13.5863 72.7695 14.3731L70.2992 15.0813C70.2842 14.583 70.1293 14.2289 69.8346 14.0191C69.5532 13.8093 69.1725 13.7043 68.6925 13.7043C68.2125 13.7043 67.8301 13.7896 67.5454 13.9601C67.2632 14.1174 67.0955 14.3404 67.0424 14.6288C66.9846 14.9436 67.0745 15.1796 67.3122 15.337C67.5524 15.4812 67.8919 15.5927 68.3307 15.6714L68.8726 15.7697C69.5952 15.9009 70.236 16.0779 70.795 16.3008C71.3697 16.5106 71.7931 16.8188 72.065 17.2253C72.3526 17.6187 72.4338 18.1564 72.3084 18.8383C72.1203 19.8611 71.5944 20.6545 70.7307 21.2184C69.8827 21.7691 68.8254 22.0445 67.5587 22.0445Z" fill="white"/>
<path d="M76.5824 21.7691C75.929 21.7691 75.4319 21.5724 75.0909 21.179C74.7656 20.7725 74.6645 20.2348 74.7875 19.5661L75.8003 14.0584H73.3203L73.6965 12.0127H76.1765L76.7336 8.98351H79.2536L78.6965 12.0127H83.9376L84 14.0584H78.3203L77.3871 19.1333C77.3147 19.5267 77.4652 19.7234 77.8385 19.7234H79.7585L79.3823 21.7691H76.5824Z" fill="white"/>
<path d="M80.9034 21.7691L82.6976 12.0127H85.1776L84.975 13.1142H85.335C85.554 12.7208 85.8471 12.4323 86.2142 12.2488C86.5946 12.0652 87.0115 11.9734 87.4648 11.9734H88.6648L88.2597 14.1764H87.0197C86.3797 14.1764 85.8217 14.3469 85.3457 14.6879C84.872 15.0157 84.5713 15.5271 84.4435 16.2221L83.4234 21.7691H80.9034Z" fill="white"/>
<path d="M90.6281 22.0445C89.9214 22.0445 89.3098 21.9265 88.7932 21.6904C88.279 21.4413 87.8975 21.0872 87.6486 20.6282C87.4154 20.1562 87.3603 19.5857 87.4833 18.9169C87.6062 18.2482 87.8687 17.6908 88.2707 17.245C88.6885 16.786 89.2045 16.4451 89.8188 16.2221C90.4489 15.9861 91.1373 15.8681 91.8839 15.8681H94.6039L94.7052 15.3173C94.7896 14.8583 94.7117 14.4846 94.4714 14.1961C94.2335 13.8945 93.7946 13.7437 93.1546 13.7437C92.5279 13.7437 92.0347 13.8879 91.675 14.1764C91.3177 14.4518 91.0514 14.8124 90.8761 15.2583L88.6971 14.4912C88.9488 13.9928 89.2853 13.5404 89.7067 13.1339C90.1439 12.7143 90.6787 12.3799 91.3112 12.1307C91.9594 11.8685 92.7102 11.7373 93.5636 11.7373C94.8702 11.7373 95.8445 12.0586 96.4863 12.7012C97.1282 13.3437 97.3369 14.2748 97.1127 15.4943L96.4435 19.1333C96.3711 19.5267 96.5216 19.7234 96.895 19.7234H97.695L97.3188 21.7691H95.6388C95.1454 21.7691 94.7605 21.6511 94.4839 21.4151C94.2073 21.179 94.1052 20.8643 94.1775 20.4709L94.1811 20.4512H93.8011C93.7188 20.6086 93.5603 20.8184 93.3254 21.0807C93.0929 21.3298 92.7585 21.5527 92.3224 21.7494C91.8862 21.9462 91.3214 22.0445 90.6281 22.0445ZM91.4371 20.0381C92.1437 20.0381 92.752 19.848 93.262 19.4677C93.7877 19.0743 94.1096 18.5563 94.2277 17.9138L94.2639 17.7171H91.7239C91.2572 17.7171 90.8725 17.8154 90.5696 18.0121C90.2668 18.2088 90.0828 18.4842 90.0177 18.8383C89.9526 19.1923 90.0396 19.4808 90.2786 19.7038C90.5176 19.9267 90.9037 20.0381 91.4371 20.0381Z" fill="white"/>
<path d="M97.4378 25.7032L99.9554 12.0127H102.435L102.218 13.1929H102.578C102.875 12.8126 103.29 12.4782 103.823 12.1897C104.358 11.8881 105.073 11.7373 105.966 11.7373C106.766 11.7373 107.47 11.934 108.078 12.3274C108.688 12.7077 109.131 13.2716 109.406 14.0191C109.682 14.7665 109.723 15.6714 109.527 16.7336L109.469 17.0483C109.274 18.1105 108.901 19.0153 108.35 19.7628C107.799 20.5102 107.148 21.0807 106.396 21.4741C105.646 21.8544 104.871 22.0445 104.071 22.0445C103.471 22.0445 102.977 21.9724 102.59 21.8281C102.215 21.697 101.919 21.5265 101.704 21.3167C101.505 21.0938 101.353 20.8708 101.247 20.6479H100.887L99.9578 25.7032H97.4378ZM103.709 19.8808C104.495 19.8808 105.186 19.6382 105.782 19.153C106.394 18.6547 106.787 17.9334 106.96 16.9893L106.996 16.7926C107.17 15.8484 107.041 15.1337 106.611 14.6485C106.182 14.1502 105.581 13.9011 104.808 13.9011C104.035 13.9011 103.342 14.1502 102.731 14.6485C102.121 15.1337 101.73 15.8484 101.556 16.7926L101.52 16.9893C101.347 17.9334 101.474 18.6547 101.902 19.153C102.333 19.6382 102.935 19.8808 103.709 19.8808Z" fill="white"/>
<path d="M105.473 25.0275L102.224 26.5267C101.85 26.7016 101.975 27.2513 102.374 27.2513H103.749V28.6256C103.749 29.0254 104.298 29.1504 104.473 28.7755L105.973 25.5273C106.097 25.2273 105.773 24.9025 105.473 25.0275Z" fill="white"/>
</svg>
