<svg width="120" height="40" viewBox="0 0 120 40" fill="none" xmlns="http://www.w3.org/2000/svg">
<path d="M75.4781 31.9563C74.8514 31.9563 74.3567 31.8186 73.994 31.5432C73.6314 31.2678 73.4546 30.8515 73.4637 30.2941L74.4653 30.0679C74.4692 30.3368 74.52 30.5499 74.6178 30.7072C74.7155 30.8646 74.8517 30.976 75.0263 31.0416C75.2076 31.1072 75.4082 31.14 75.6282 31.14C75.9549 31.14 76.2163 31.0777 76.4126 30.9531C76.6155 30.8285 76.735 30.6679 76.7712 30.4712C76.8074 30.2745 76.7505 30.1302 76.6008 30.0384C76.451 29.9466 76.2182 29.8712 75.9024 29.8122L75.5732 29.7532C75.2507 29.6942 74.9631 29.609 74.7102 29.4975C74.4574 29.386 74.2691 29.232 74.1452 29.0353C74.0214 28.8385 73.9878 28.5861 74.0445 28.2779C74.1289 27.819 74.3674 27.4649 74.7598 27.2158C75.1535 26.96 75.637 26.8322 76.2104 26.8322C76.7637 26.8322 77.1941 26.9568 77.5016 27.2059C77.817 27.4485 77.9895 27.7796 78.019 28.1993L77.0101 28.4648C77.0044 28.1698 76.9157 27.9632 76.7441 27.8452C76.5737 27.7206 76.3451 27.6583 76.0585 27.6583C75.7785 27.6583 75.5488 27.7108 75.3695 27.8157C75.1914 27.9141 75.0855 28.055 75.0517 28.2386C75.0156 28.4353 75.0657 28.5796 75.2022 28.6714C75.3453 28.7631 75.546 28.832 75.8042 28.8779L76.1433 28.9369C76.4858 28.9959 76.7941 29.0779 77.0681 29.1828C77.3422 29.2877 77.5444 29.4385 77.6749 29.6352C77.8121 29.8319 77.8505 30.0942 77.7902 30.422C77.701 30.9072 77.4483 31.2842 77.0322 31.553C76.6161 31.8219 76.0981 31.9563 75.4781 31.9563Z" fill="#111111"/>
<path d="M79.9802 31.8186C79.6802 31.8186 79.4565 31.7301 79.309 31.553C79.1682 31.376 79.125 31.14 79.1792 30.8449L79.7345 27.8255H78.3745L78.5318 26.9699H79.8918L80.1866 25.3668H81.2166L80.9218 26.9699H82.3918L82.2345 27.8255H80.7645L80.2418 30.6679C80.2056 30.8646 80.2809 30.9629 80.4675 30.9629H81.4975L81.3402 31.8186H79.9802Z" fill="#111111"/>
<path d="M84.0836 31.907C83.7103 31.907 83.392 31.825 83.1288 31.6611C82.8656 31.4972 82.6784 31.2644 82.5672 30.9628C82.456 30.6612 82.439 30.3006 82.5162 29.881L83.0515 26.9698H84.0815L83.5588 29.8121C83.4817 30.2318 83.531 30.5432 83.707 30.7465C83.8842 30.9432 84.1627 31.0415 84.5427 31.0415C84.9627 31.0415 85.3247 30.9038 85.6287 30.6284C85.9406 30.3465 86.1447 29.9433 86.2412 29.4187L86.6915 26.9698H87.7215L86.8299 31.8185H85.8199L85.9537 31.0907H85.7937C85.6642 31.2874 85.4632 31.4743 85.1906 31.6513C84.9193 31.8218 84.5503 31.907 84.0836 31.907Z" fill="#111111"/>
<path d="M89.8673 31.9563C89.4607 31.9563 89.1021 31.8579 88.7916 31.6612C88.4811 31.4645 88.2529 31.1826 88.1071 30.8154C87.9692 30.4417 87.9484 29.9925 88.0449 29.468L88.072 29.3205C88.1673 28.8025 88.3526 28.3566 88.628 27.9829C88.9034 27.6092 89.2325 27.3239 89.6154 27.1272C89.9982 26.9305 90.3963 26.8322 90.8096 26.8322C91.1296 26.8322 91.389 26.8715 91.5879 26.9502C91.7934 27.0289 91.9548 27.1305 92.0718 27.2551C92.1901 27.3731 92.2739 27.4977 92.3231 27.6288H92.4831L92.9787 24.934H94.0087L92.7426 31.8186H91.7326L91.8592 31.1301H91.6992C91.534 31.3399 91.3057 31.5301 91.0143 31.7006C90.7297 31.871 90.3473 31.9563 89.8673 31.9563ZM90.3201 31.0711C90.7668 31.0711 91.1594 30.9301 91.4979 30.6482C91.8431 30.3663 92.0639 29.963 92.1603 29.4385L92.1766 29.35C92.2719 28.832 92.2021 28.432 91.9673 28.1501C91.7324 27.8682 91.3884 27.7272 90.935 27.7272C90.495 27.7272 90.1024 27.8682 89.7573 28.1501C89.4187 28.432 89.2019 28.832 89.1066 29.35L89.0903 29.4385C88.9939 29.963 89.0631 30.3663 89.2979 30.6482C89.5394 30.9301 89.8801 31.0711 90.3201 31.0711Z" fill="#111111"/>
<path d="M93.7588 31.8186L94.6504 26.9699H95.6804L94.7888 31.8186H93.7588ZM95.2916 26.3109C95.0916 26.3109 94.9331 26.2486 94.816 26.1241C94.7068 25.9929 94.6708 25.8257 94.7082 25.6225C94.7456 25.4192 94.8424 25.2553 94.9987 25.1307C95.1628 24.9996 95.3448 24.934 95.5448 24.934C95.7515 24.934 95.9094 24.9996 96.0187 25.1307C96.1291 25.2553 96.1656 25.4192 96.1282 25.6225C96.0908 25.8257 95.9934 25.9929 95.836 26.1241C95.6797 26.2486 95.4983 26.3109 95.2916 26.3109Z" fill="#111111"/>
<path d="M98.1021 31.9563C97.6087 31.9563 97.1868 31.8579 96.8363 31.6612C96.4937 31.458 96.2468 31.1695 96.0955 30.7957C95.9442 30.422 95.9156 29.9794 96.0096 29.468L96.0368 29.3205C96.1308 28.809 96.3216 28.3697 96.6091 28.0026C96.8979 27.6288 97.2509 27.3403 97.6683 27.1371C98.0923 26.9338 98.551 26.8322 99.0444 26.8322C99.5377 26.8322 99.959 26.9338 100.308 27.1371C100.658 27.3403 100.908 27.6288 101.059 28.0026C101.212 28.3697 101.241 28.809 101.147 29.3205L101.12 29.468C101.026 29.9794 100.834 30.422 100.546 30.7957C100.257 31.1695 99.9004 31.458 99.4763 31.6612C99.0535 31.8579 98.5954 31.9563 98.1021 31.9563ZM98.2685 31.0514C98.7218 31.0514 99.1144 30.9105 99.4462 30.6285C99.786 30.34 100.002 29.9434 100.095 29.4385L100.111 29.35C100.204 28.8451 100.137 28.4517 99.9084 28.1698C99.6814 27.8813 99.338 27.737 98.878 27.737C98.4313 27.737 98.0381 27.8813 97.6984 28.1698C97.3665 28.4517 97.1542 28.8451 97.0614 29.35L97.0451 29.4385C96.9522 29.9434 97.0193 30.34 97.2462 30.6285C97.481 30.9105 97.8218 31.0514 98.2685 31.0514Z" fill="#111111"/>
<path d="M12.102 21.7691L13.52 14.0584H11L11.3762 12.0127H13.8962L14.229 10.2031C14.352 9.53427 14.6496 9.00318 15.122 8.60978C15.6101 8.20326 16.1808 8 16.8341 8H21.9421L21 10.0457H17.3379C16.9646 10.0457 16.7417 10.2424 16.6694 10.6358L16.4162 12.0127H23L19.64 14.0584H16.04L14.622 21.7691H12.102Z" fill="#111111"/>
<path d="M22.5101 22.0445C21.5234 22.0445 20.6729 21.8478 19.9586 21.4544C19.2443 21.061 18.7292 20.4906 18.4133 19.7431C18.0974 18.9956 18.036 18.0974 18.2289 17.0483L18.2868 16.7336C18.4797 15.6845 18.8715 14.7862 19.4623 14.0387C20.0531 13.2913 20.778 12.7208 21.637 12.3274C22.496 11.934 23.4189 11.7373 24.4055 11.7373C25.3922 11.7373 26.2427 11.934 26.957 12.3274C27.6713 12.7208 28.1864 13.2913 28.5023 14.0387C28.8182 14.7862 28.8797 15.6845 28.6868 16.7336L28.6289 17.0483C28.436 18.0974 28.0441 18.9956 27.4533 19.7431C26.8625 20.4906 26.1376 21.061 25.2786 21.4544C24.4196 21.8478 23.4968 22.0445 22.5101 22.0445ZM22.9152 19.8414C23.6886 19.8414 24.3732 19.5988 24.9691 19.1136C25.5674 18.6153 25.9509 17.9072 26.1197 16.9893L26.1559 16.7926C26.3247 15.8746 26.2004 15.1731 25.783 14.6879C25.3813 14.1895 24.7871 13.9404 24.0004 13.9404C23.2271 13.9404 22.5413 14.1895 21.943 14.6879C21.3471 15.1731 20.9647 15.8746 20.7959 16.7926L20.7597 16.9893C20.5909 17.9072 20.714 18.6153 21.1291 19.1136C21.5465 19.5988 22.1419 19.8414 22.9152 19.8414Z" fill="#111111"/>
<path d="M32.838 21.9265C32.0647 21.9265 31.416 21.756 30.892 21.4151C30.3838 21.061 30.0264 20.5758 29.8197 19.9595C29.6131 19.3431 29.5833 18.635 29.7304 17.8351L30.8011 12.0127H33.3211L32.2866 17.6384C32.1515 18.3727 32.2302 18.9235 32.5227 19.2907C32.8285 19.6579 33.3214 19.8414 34.0014 19.8414C34.7748 19.8414 35.4206 19.5923 35.9389 19.094C36.4596 18.5826 36.8032 17.8744 36.9695 16.9696L37.8811 12.0127H40.4011L38.6069 21.7691H36.1269L36.3621 20.4906H36.0021C35.7818 20.8184 35.4227 21.1397 34.9248 21.4544C34.4269 21.7691 33.7313 21.9265 32.838 21.9265Z" fill="#111111"/>
<path d="M40.4111 21.769L42.2052 12.0126H44.6852L44.4501 13.2912H44.8101C45.0328 12.9502 45.3919 12.6289 45.8873 12.3273C46.3852 12.0126 47.0808 11.8553 47.9741 11.8553C48.7475 11.8553 49.3883 12.0323 49.8965 12.3863C50.4205 12.7273 50.7858 13.2059 50.9924 13.8223C51.2015 14.4255 51.2313 15.1336 51.0818 15.9466L50.0111 21.769H47.4911L48.5256 16.1434C48.6606 15.409 48.5753 14.8582 48.2694 14.4911C47.977 14.1239 47.4907 13.9403 46.8107 13.9403C46.0374 13.9403 45.3904 14.196 44.8697 14.7074C44.3513 15.2057 44.009 15.9073 43.8426 16.8121L42.9311 21.769H40.4111Z" fill="#111111"/>
<path d="M55.6846 22.0445C54.898 22.0445 54.1929 21.8544 53.5695 21.4741C52.9619 21.0807 52.5201 20.5102 52.2442 19.7628C51.9684 19.0153 51.9281 18.1105 52.1234 17.0483L52.1813 16.7336C52.3766 15.6714 52.7497 14.7665 53.3005 14.0191C53.8513 13.2716 54.5016 12.7077 55.2516 12.3274C56.0039 11.934 56.7801 11.7373 57.5801 11.7373C58.1801 11.7373 58.6668 11.8095 59.0403 11.9537C59.4295 12.0848 59.7315 12.2553 59.9462 12.4651C60.161 12.6749 60.3133 12.8979 60.4033 13.1339H60.7633L61.7074 8H64.2274L61.6953 21.7691H59.2153L59.4323 20.5889H59.0723C58.7781 20.9561 58.3633 21.2905 57.8278 21.5921C57.3057 21.8937 56.5913 22.0445 55.6846 22.0445ZM56.8425 19.8808C57.6159 19.8808 58.3071 19.6382 58.9164 19.153C59.528 18.6547 59.9206 17.9334 60.0943 16.9893L60.1304 16.7926C60.3041 15.8484 60.1755 15.1337 59.7447 14.6485C59.3297 14.1502 58.7288 13.9011 57.9422 13.9011C57.1688 13.9011 56.4764 14.1502 55.8647 14.6485C55.2555 15.1337 54.8641 15.8484 54.6904 16.7926L54.6543 16.9893C54.4806 17.9334 54.608 18.6547 55.0364 19.153C55.4671 19.6382 56.0692 19.8808 56.8425 19.8808Z" fill="#111111"/>
<path d="M67.5588 22.0445C66.2655 22.0445 65.2562 21.7691 64.5308 21.2184C63.8054 20.6676 63.4501 19.8808 63.4648 18.8579L65.8934 18.2678C65.9023 18.7268 65.9893 19.0874 66.1544 19.3497C66.3328 19.612 66.5712 19.8021 66.8695 19.9201C67.1835 20.025 67.5339 20.0775 67.9206 20.0775C68.5072 20.0775 68.9586 19.9791 69.2748 19.7824C69.5934 19.5726 69.7804 19.3169 69.8359 19.0153C69.8914 18.7137 69.8002 18.4842 69.5625 18.3268C69.3272 18.1564 68.9258 18.0187 68.3585 17.9138L67.8165 17.8154C67.1473 17.6843 66.5466 17.5072 66.0142 17.2843C65.4843 17.0483 65.0834 16.727 64.8115 16.3205C64.5395 15.914 64.4627 15.3894 64.5808 14.7469C64.7593 13.7765 65.2555 13.0356 66.0696 12.5241C66.886 11.9996 67.8809 11.7373 69.0543 11.7373C70.1609 11.7373 71.0363 11.9799 71.6804 12.4651C72.3245 12.9503 72.6876 13.5863 72.7696 14.3731L70.2993 15.0813C70.2843 14.583 70.1294 14.2289 69.8347 14.0191C69.5533 13.8093 69.1726 13.7043 68.6926 13.7043C68.2126 13.7043 67.8302 13.7896 67.5455 13.9601C67.2633 14.1174 67.0956 14.3404 67.0425 14.6288C66.9847 14.9436 67.0746 15.1796 67.3123 15.337C67.5525 15.4812 67.892 15.5927 68.3308 15.6714L68.8727 15.7697C69.5953 15.9009 70.2361 16.0779 70.7951 16.3008C71.3698 16.5106 71.7932 16.8188 72.0651 17.2253C72.3527 17.6187 72.4339 18.1564 72.3085 18.8383C72.1204 19.8611 71.5945 20.6545 70.7308 21.2184C69.8828 21.7691 68.8255 22.0445 67.5588 22.0445Z" fill="#111111"/>
<path d="M76.5824 21.7691C75.929 21.7691 75.4319 21.5724 75.0909 21.179C74.7656 20.7725 74.6645 20.2348 74.7875 19.5661L75.8003 14.0584H73.3203L73.6965 12.0127H76.1765L76.7336 8.98352H79.2536L78.6965 12.0127H83.9376L84 14.0584H78.3203L77.3871 19.1333C77.3147 19.5267 77.4652 19.7234 77.8385 19.7234H79.7585L79.3823 21.7691H76.5824Z" fill="#111111"/>
<path d="M80.9033 21.7691L82.6975 12.0127H85.1775L84.9749 13.1142H85.3349C85.5539 12.7208 85.847 12.4323 86.2141 12.2488C86.5945 12.0652 87.0114 11.9734 87.4647 11.9734H88.6647L88.2596 14.1764H87.0196C86.3796 14.1764 85.8216 14.3469 85.3456 14.6879C84.8719 15.0157 84.5712 15.5271 84.4434 16.2221L83.4233 21.7691H80.9033Z" fill="#111111"/>
<path d="M90.6279 22.0445C89.9212 22.0445 89.3096 21.9265 88.793 21.6904C88.2788 21.4413 87.8973 21.0872 87.6484 20.6282C87.4152 20.1562 87.3601 19.5857 87.4831 18.9169C87.606 18.2482 87.8685 17.6908 88.2705 17.245C88.6883 16.786 89.2043 16.4451 89.8186 16.2221C90.4487 15.9861 91.1371 15.8681 91.8837 15.8681H94.6037L94.705 15.3173C94.7894 14.8583 94.7115 14.4846 94.4712 14.1961C94.2333 13.8945 93.7944 13.7437 93.1544 13.7437C92.5277 13.7437 92.0345 13.8879 91.6748 14.1764C91.3175 14.4518 91.0512 14.8124 90.8759 15.2583L88.6969 14.4912C88.9486 13.9928 89.2851 13.5404 89.7065 13.1339C90.1437 12.7143 90.6785 12.3799 91.311 12.1307C91.9592 11.8685 92.71 11.7373 93.5634 11.7373C94.87 11.7373 95.8443 12.0586 96.4861 12.7012C97.128 13.3437 97.3367 14.2748 97.1125 15.4943L96.4433 19.1333C96.3709 19.5267 96.5214 19.7234 96.8948 19.7234H97.6948L97.3186 21.7691H95.6386C95.1452 21.7691 94.7603 21.6511 94.4837 21.4151C94.2071 21.179 94.105 20.8643 94.1773 20.4709L94.1809 20.4512H93.8009C93.7186 20.6086 93.5601 20.8184 93.3252 21.0807C93.0927 21.3298 92.7583 21.5527 92.3222 21.7494C91.886 21.9462 91.3212 22.0445 90.6279 22.0445ZM91.4369 20.0381C92.1435 20.0381 92.7518 19.848 93.2618 19.4677C93.7875 19.0743 94.1094 18.5563 94.2275 17.9138L94.2637 17.7171H91.7237C91.257 17.7171 90.8723 17.8154 90.5694 18.0121C90.2666 18.2088 90.0826 18.4842 90.0175 18.8383C89.9524 19.1923 90.0394 19.4808 90.2784 19.7038C90.5174 19.9267 90.9035 20.0381 91.4369 20.0381Z" fill="#111111"/>
<path d="M97.438 25.7032L99.9556 12.0127H102.435L102.218 13.1929H102.578C102.875 12.8126 103.29 12.4782 103.823 12.1897C104.358 11.8881 105.073 11.7373 105.966 11.7373C106.766 11.7373 107.47 11.934 108.078 12.3274C108.688 12.7077 109.131 13.2716 109.406 14.0191C109.682 14.7665 109.723 15.6714 109.527 16.7336L109.469 17.0483C109.274 18.1105 108.901 19.0153 108.35 19.7628C107.799 20.5102 107.148 21.0807 106.396 21.4741C105.646 21.8544 104.871 22.0445 104.071 22.0445C103.471 22.0445 102.977 21.9724 102.59 21.8281C102.215 21.697 101.919 21.5265 101.704 21.3167C101.505 21.0938 101.353 20.8708 101.247 20.6479H100.887L99.958 25.7032H97.438ZM103.709 19.8808C104.495 19.8808 105.186 19.6382 105.782 19.153C106.394 18.6547 106.787 17.9334 106.96 16.9893L106.996 16.7926C107.17 15.8484 107.041 15.1337 106.611 14.6485C106.182 14.1502 105.581 13.9011 104.808 13.9011C104.035 13.9011 103.342 14.1502 102.731 14.6485C102.121 15.1337 101.73 15.8484 101.556 16.7926L101.52 16.9893C101.347 17.9334 101.474 18.6547 101.902 19.153C102.333 19.6382 102.935 19.8808 103.709 19.8808Z" fill="#111111"/>
<path d="M105.473 25.0275L102.224 26.5267C101.85 26.7016 101.975 27.2513 102.374 27.2513H103.749V28.6256C103.749 29.0254 104.298 29.1504 104.473 28.7755L105.973 25.5273C106.097 25.2273 105.773 24.9025 105.473 25.0275Z" fill="#111111"/>
</svg>
